<svg width="58" height="55" viewBox="0 0 58 55" fill="none" xmlns="http://www.w3.org/2000/svg">
<path d="M49.625 0.750001C48.0017 0.749304 46.4221 1.2755 45.1235 2.24949C43.8249 3.22348 42.8776 4.59265 42.4238 6.1512C41.97 7.70975 42.0344 9.37348 42.6072 10.8923C43.18 12.4112 44.2304 13.703 45.6003 14.5738L40.7063 31.7027C40.5544 31.6931 40.4022 31.688 40.25 31.6875C38.6367 31.6857 37.0663 32.207 35.7743 33.1732L26.7328 25.6386C27.1608 24.3686 27.2407 23.0071 26.9642 21.6957C26.6877 20.3844 26.0648 19.1711 25.1604 18.182C24.256 17.193 23.1031 16.4643 21.8216 16.0719C20.5402 15.6795 19.177 15.6376 17.8738 15.9507C16.5707 16.2637 15.3752 16.9202 14.4118 17.8519C13.4484 18.7835 12.7523 19.9563 12.3958 21.2482C12.0393 22.5402 12.0355 23.904 12.3848 25.1979C12.7341 26.4918 13.4237 27.6685 14.3819 28.6055L9.07426 39.2213C8.84183 39.1992 8.60849 39.1879 8.37501 39.1875C6.57825 39.1852 4.84022 39.8272 3.4764 40.9969C2.11257 42.1667 1.21334 43.7866 0.941941 45.5628C0.67054 47.3389 1.04495 49.1535 1.99722 50.6771C2.94949 52.2008 4.41648 53.3325 6.13193 53.8669C7.84738 54.4013 9.69758 54.3029 11.3467 53.5896C12.9958 52.8763 14.3345 51.5953 15.1198 49.9793C15.9051 48.3632 16.0849 46.5192 15.6266 44.7818C15.1684 43.0445 14.1024 41.529 12.6222 40.5106L17.6379 30.4806C18.8562 30.8167 20.1399 30.8387 21.369 30.5445C22.5982 30.2503 23.7328 29.6495 24.667 28.7982L33.4209 36.0934C32.8265 37.4034 32.6213 38.8567 32.8299 40.2801C33.0384 41.7034 33.652 43.0368 34.5973 44.1211C35.5426 45.2054 36.7798 45.995 38.1615 46.3958C39.5431 46.7965 41.0108 46.7914 42.3896 46.3811C43.7684 45.9708 45.0001 45.1727 45.9379 44.0818C46.8757 42.991 47.48 41.6534 47.6787 40.2286C47.8774 38.8039 47.6622 37.352 47.0587 36.0462C46.4552 34.7403 45.4889 33.6356 44.2749 32.8637L49.1687 15.7348C49.3197 15.7439 49.4716 15.75 49.625 15.75C51.6141 15.75 53.5218 14.9598 54.9283 13.5533C56.3348 12.1468 57.125 10.2391 57.125 8.25C57.125 6.26088 56.3348 4.35322 54.9283 2.9467C53.5218 1.54018 51.6141 0.750001 49.625 0.750001ZM8.37501 50.4375C7.63333 50.4375 6.9083 50.2176 6.29162 49.8055C5.67493 49.3935 5.19429 48.8078 4.91046 48.1226C4.62663 47.4373 4.55237 46.6833 4.69706 45.9559C4.84176 45.2285 5.19891 44.5603 5.72336 44.0359C6.2478 43.5114 6.91599 43.1543 7.64342 43.0096C8.37085 42.8649 9.12485 42.9391 9.81007 43.223C10.4953 43.5068 11.081 43.9874 11.493 44.6041C11.9051 45.2208 12.125 45.9458 12.125 46.6875C12.1239 47.6817 11.7284 48.6349 11.0254 49.3379C10.3224 50.0409 9.36923 50.4364 8.37501 50.4375ZM19.625 27C18.8833 27 18.1583 26.7801 17.5416 26.368C16.9249 25.956 16.4443 25.3703 16.1605 24.6851C15.8766 23.9998 15.8024 23.2458 15.9471 22.5184C16.0918 21.791 16.4489 21.1228 16.9734 20.5984C17.4978 20.0739 18.166 19.7168 18.8934 19.5721C19.6208 19.4274 20.3748 19.5016 21.0601 19.7855C21.7453 20.0693 22.331 20.5499 22.743 21.1666C23.1551 21.7833 23.375 22.5083 23.375 23.25C23.3739 24.2442 22.9784 25.1974 22.2754 25.9004C21.5724 26.6034 20.6192 26.9989 19.625 27ZM40.25 42.9375C39.5083 42.9375 38.7833 42.7176 38.1666 42.3055C37.5499 41.8935 37.0693 41.3078 36.7855 40.6226C36.5016 39.9373 36.4274 39.1833 36.5721 38.4559C36.7168 37.7285 37.0739 37.0603 37.5984 36.5359C38.1228 36.0114 38.791 35.6543 39.5184 35.5096C40.2458 35.3649 40.9998 35.4391 41.6851 35.723C42.3703 36.0068 42.956 36.4874 43.368 37.1041C43.7801 37.7208 44 38.4458 44 39.1875C43.9989 40.1817 43.6034 41.1349 42.9004 41.8379C42.1974 42.5409 41.2442 42.9364 40.25 42.9375ZM49.625 12C48.8833 12 48.1583 11.7801 47.5416 11.368C46.9249 10.956 46.4443 10.3703 46.1605 9.68506C45.8766 8.99984 45.8024 8.24584 45.9471 7.51841C46.0918 6.79098 46.4489 6.1228 46.9734 5.59835C47.4978 5.0739 48.166 4.71675 48.8934 4.57206C49.6208 4.42736 50.3748 4.50162 51.0601 4.78545C51.7453 5.06928 52.331 5.54993 52.743 6.16661C53.1551 6.7833 53.375 7.50832 53.375 8.25C53.3739 9.24422 52.9784 10.1974 52.2754 10.9004C51.5724 11.6034 50.6192 11.9989 49.625 12Z" fill="white"/>
</svg>
